<mxfile host="app.diagrams.net" agent="Mozilla/5.0 (Windows NT 10.0; Win64; x64) AppleWebKit/537.36 (KHTML, like Gecko) Chrome/139.0.0.0 Safari/537.36" version="28.1.2">
  <diagram name="Page-1" id="pfqo85bMG-n9jRTXWsO7">
    <mxGraphModel grid="1" page="1" gridSize="10" guides="1" tooltips="1" connect="1" arrows="1" fold="1" pageScale="1" pageWidth="850" pageHeight="1100" math="0" shadow="0">
      <root>
        <mxCell id="0" />
        <mxCell id="1" parent="0" />
        <mxCell id="qq0M3q49_DZtNdxDIvg4-1" value="&lt;b&gt;&lt;font style=&quot;font-size: 24px;&quot;&gt;Data Flow Diagram&lt;/font&gt;&lt;/b&gt;" style="text;html=1;align=center;verticalAlign=middle;resizable=0;points=[];autosize=1;strokeColor=none;fillColor=none;" vertex="1" parent="1">
          <mxGeometry x="880" width="240" height="40" as="geometry" />
        </mxCell>
        <mxCell id="qq0M3q49_DZtNdxDIvg4-2" value="" style="rounded=0;whiteSpace=wrap;html=1;fillColor=none;dashed=1;dashPattern=1 2;" vertex="1" parent="1">
          <mxGeometry x="881.88" y="90" width="200" height="330" as="geometry" />
        </mxCell>
        <mxCell id="qq0M3q49_DZtNdxDIvg4-3" value="Sources" style="text;html=1;align=center;verticalAlign=middle;whiteSpace=wrap;rounded=0;fillColor=default;fontSize=16;" vertex="1" parent="1">
          <mxGeometry x="924" y="80" width="90" height="30" as="geometry" />
        </mxCell>
        <mxCell id="qq0M3q49_DZtNdxDIvg4-28" style="edgeStyle=elbowEdgeStyle;rounded=0;orthogonalLoop=1;jettySize=auto;elbow=vertical;html=1;" edge="1" parent="1" target="qq0M3q49_DZtNdxDIvg4-10">
          <mxGeometry relative="1" as="geometry">
            <mxPoint x="1090" y="180" as="sourcePoint" />
            <Array as="points">
              <mxPoint x="1140" y="145" />
            </Array>
          </mxGeometry>
        </mxCell>
        <mxCell id="qq0M3q49_DZtNdxDIvg4-4" value="&lt;b&gt;CRM&lt;/b&gt;" style="image;aspect=fixed;html=1;points=[];align=center;fontSize=12;image=img/lib/azure2/general/Folder_Blank.svg;" vertex="1" parent="1">
          <mxGeometry x="930" y="150.91" width="84" height="68.17" as="geometry" />
        </mxCell>
        <mxCell id="qq0M3q49_DZtNdxDIvg4-33" style="edgeStyle=elbowEdgeStyle;rounded=0;orthogonalLoop=1;jettySize=auto;elbow=vertical;html=1;" edge="1" parent="1" source="qq0M3q49_DZtNdxDIvg4-5" target="qq0M3q49_DZtNdxDIvg4-11">
          <mxGeometry relative="1" as="geometry">
            <Array as="points" />
          </mxGeometry>
        </mxCell>
        <mxCell id="qq0M3q49_DZtNdxDIvg4-34" style="edgeStyle=elbowEdgeStyle;rounded=0;orthogonalLoop=1;jettySize=auto;elbow=vertical;html=1;" edge="1" parent="1" target="qq0M3q49_DZtNdxDIvg4-12">
          <mxGeometry relative="1" as="geometry">
            <mxPoint x="1090" y="350" as="sourcePoint" />
            <mxPoint x="1168" y="295" as="targetPoint" />
            <Array as="points">
              <mxPoint x="1103" y="290" />
            </Array>
          </mxGeometry>
        </mxCell>
        <mxCell id="qq0M3q49_DZtNdxDIvg4-38" style="edgeStyle=elbowEdgeStyle;rounded=0;orthogonalLoop=1;jettySize=auto;elbow=vertical;html=1;" edge="1" parent="1">
          <mxGeometry relative="1" as="geometry">
            <mxPoint x="1090" y="340" as="sourcePoint" />
            <mxPoint x="1185" y="374.5" as="targetPoint" />
            <Array as="points">
              <mxPoint x="1120" y="375" />
            </Array>
          </mxGeometry>
        </mxCell>
        <mxCell id="qq0M3q49_DZtNdxDIvg4-5" value="&lt;b&gt;ERP&lt;/b&gt;" style="image;aspect=fixed;html=1;points=[];align=center;fontSize=12;image=img/lib/azure2/general/Folder_Blank.svg;" vertex="1" parent="1">
          <mxGeometry x="930" y="290" width="90" height="73.04" as="geometry" />
        </mxCell>
        <mxCell id="qq0M3q49_DZtNdxDIvg4-8" value="&lt;b&gt;&lt;font style=&quot;font-size: 16px;&quot;&gt;Bronze Layer&lt;/font&gt;&lt;/b&gt;" style="rounded=1;whiteSpace=wrap;html=1;fillColor=#ffcd28;gradientColor=#ffa500;strokeColor=#d79b00;opacity=70;" vertex="1" parent="1">
          <mxGeometry x="1160" y="50" width="200" height="40" as="geometry" />
        </mxCell>
        <mxCell id="qq0M3q49_DZtNdxDIvg4-10" value="crm_sales_details" style="rounded=1;whiteSpace=wrap;html=1;fillColor=#ffcd28;gradientColor=#ffa500;strokeColor=#d79b00;" vertex="1" parent="1">
          <mxGeometry x="1185" y="130" width="150" height="30" as="geometry" />
        </mxCell>
        <mxCell id="bunzH4c_ks8n5rz-YsQw-13" style="edgeStyle=orthogonalEdgeStyle;rounded=0;orthogonalLoop=1;jettySize=auto;html=1;entryX=0;entryY=0.5;entryDx=0;entryDy=0;" edge="1" parent="1" source="qq0M3q49_DZtNdxDIvg4-11" target="bunzH4c_ks8n5rz-YsQw-3">
          <mxGeometry relative="1" as="geometry" />
        </mxCell>
        <mxCell id="qq0M3q49_DZtNdxDIvg4-11" value="erp_loc_a101" style="rounded=1;whiteSpace=wrap;html=1;fillColor=#ffcd28;gradientColor=#ffa500;strokeColor=#d79b00;" vertex="1" parent="1">
          <mxGeometry x="1185" y="320" width="150" height="30" as="geometry" />
        </mxCell>
        <mxCell id="bunzH4c_ks8n5rz-YsQw-12" style="edgeStyle=orthogonalEdgeStyle;rounded=0;orthogonalLoop=1;jettySize=auto;html=1;entryX=0;entryY=0.5;entryDx=0;entryDy=0;" edge="1" parent="1" source="qq0M3q49_DZtNdxDIvg4-12" target="bunzH4c_ks8n5rz-YsQw-4">
          <mxGeometry relative="1" as="geometry" />
        </mxCell>
        <mxCell id="qq0M3q49_DZtNdxDIvg4-12" value="erp_cust_az12" style="rounded=1;whiteSpace=wrap;html=1;fillColor=#ffcd28;gradientColor=#ffa500;strokeColor=#d79b00;" vertex="1" parent="1">
          <mxGeometry x="1185" y="280" width="150" height="30" as="geometry" />
        </mxCell>
        <mxCell id="bunzH4c_ks8n5rz-YsQw-11" style="edgeStyle=orthogonalEdgeStyle;rounded=0;orthogonalLoop=1;jettySize=auto;html=1;entryX=0;entryY=0.5;entryDx=0;entryDy=0;" edge="1" parent="1" source="qq0M3q49_DZtNdxDIvg4-13" target="bunzH4c_ks8n5rz-YsQw-5">
          <mxGeometry relative="1" as="geometry" />
        </mxCell>
        <mxCell id="qq0M3q49_DZtNdxDIvg4-13" value="crm_prd_info" style="rounded=1;whiteSpace=wrap;html=1;fillColor=#ffcd28;gradientColor=#ffa500;strokeColor=#d79b00;" vertex="1" parent="1">
          <mxGeometry x="1185" y="210" width="150" height="30" as="geometry" />
        </mxCell>
        <mxCell id="bunzH4c_ks8n5rz-YsQw-10" style="edgeStyle=orthogonalEdgeStyle;rounded=0;orthogonalLoop=1;jettySize=auto;html=1;entryX=0;entryY=0.5;entryDx=0;entryDy=0;" edge="1" parent="1" source="qq0M3q49_DZtNdxDIvg4-14" target="bunzH4c_ks8n5rz-YsQw-6">
          <mxGeometry relative="1" as="geometry" />
        </mxCell>
        <mxCell id="qq0M3q49_DZtNdxDIvg4-14" value="crm_cust_info" style="rounded=1;whiteSpace=wrap;html=1;fillColor=#ffcd28;gradientColor=#ffa500;strokeColor=#d79b00;" vertex="1" parent="1">
          <mxGeometry x="1185" y="170" width="150" height="30" as="geometry" />
        </mxCell>
        <mxCell id="bunzH4c_ks8n5rz-YsQw-14" style="edgeStyle=orthogonalEdgeStyle;rounded=0;orthogonalLoop=1;jettySize=auto;html=1;entryX=0;entryY=0.5;entryDx=0;entryDy=0;" edge="1" parent="1" source="qq0M3q49_DZtNdxDIvg4-15" target="bunzH4c_ks8n5rz-YsQw-7">
          <mxGeometry relative="1" as="geometry" />
        </mxCell>
        <mxCell id="qq0M3q49_DZtNdxDIvg4-15" value="erp_px_cat_g1v2" style="rounded=1;whiteSpace=wrap;html=1;fillColor=#ffcd28;gradientColor=#ffa500;strokeColor=#d79b00;" vertex="1" parent="1">
          <mxGeometry x="1185" y="360" width="150" height="30" as="geometry" />
        </mxCell>
        <mxCell id="qq0M3q49_DZtNdxDIvg4-29" style="edgeStyle=elbowEdgeStyle;rounded=0;orthogonalLoop=1;jettySize=auto;elbow=vertical;html=1;" edge="1" parent="1" target="qq0M3q49_DZtNdxDIvg4-13">
          <mxGeometry relative="1" as="geometry">
            <mxPoint x="1090" y="180" as="sourcePoint" />
            <mxPoint x="1170" y="230" as="targetPoint" />
            <Array as="points">
              <mxPoint x="1130" y="230" />
            </Array>
          </mxGeometry>
        </mxCell>
        <mxCell id="qq0M3q49_DZtNdxDIvg4-9" value="" style="rounded=1;whiteSpace=wrap;html=1;fillColor=none;gradientColor=#ffa500;strokeColor=#d79b00;strokeWidth=2;movable=1;resizable=1;rotatable=1;deletable=1;editable=1;locked=0;connectable=1;" vertex="1" parent="1">
          <mxGeometry x="1160" y="120" width="200" height="300" as="geometry" />
        </mxCell>
        <mxCell id="qq0M3q49_DZtNdxDIvg4-26" style="edgeStyle=elbowEdgeStyle;rounded=0;orthogonalLoop=1;jettySize=auto;elbow=vertical;html=1;" edge="1" parent="1" source="qq0M3q49_DZtNdxDIvg4-4" target="qq0M3q49_DZtNdxDIvg4-14">
          <mxGeometry relative="1" as="geometry">
            <mxPoint x="1078" y="185" as="sourcePoint" />
            <mxPoint x="1178.93" y="179.99999999999997" as="targetPoint" />
            <Array as="points">
              <mxPoint x="1140" y="185" />
              <mxPoint x="1166.88" y="180.34" />
            </Array>
          </mxGeometry>
        </mxCell>
        <mxCell id="bunzH4c_ks8n5rz-YsQw-1" value="&lt;b&gt;&lt;font style=&quot;font-size: 16px;&quot;&gt;Silver Layer&lt;/font&gt;&lt;/b&gt;" style="rounded=1;whiteSpace=wrap;html=1;fillColor=#f5f5f5;gradientColor=#b3b3b3;strokeColor=#666666;opacity=70;" vertex="1" parent="1">
          <mxGeometry x="1440" y="50" width="200" height="40" as="geometry" />
        </mxCell>
        <mxCell id="bunzH4c_ks8n5rz-YsQw-2" value="crm_sales_details" style="rounded=1;whiteSpace=wrap;html=1;fillColor=#f5f5f5;gradientColor=#b3b3b3;strokeColor=#666666;" vertex="1" parent="1">
          <mxGeometry x="1465" y="130" width="150" height="30" as="geometry" />
        </mxCell>
        <mxCell id="bunzH4c_ks8n5rz-YsQw-3" value="erp_loc_a101" style="rounded=1;whiteSpace=wrap;html=1;fillColor=#f5f5f5;gradientColor=#b3b3b3;strokeColor=#666666;" vertex="1" parent="1">
          <mxGeometry x="1465" y="320" width="150" height="30" as="geometry" />
        </mxCell>
        <mxCell id="bunzH4c_ks8n5rz-YsQw-4" value="erp_cust_az12" style="rounded=1;whiteSpace=wrap;html=1;fillColor=#f5f5f5;gradientColor=#b3b3b3;strokeColor=#666666;" vertex="1" parent="1">
          <mxGeometry x="1465" y="280" width="150" height="30" as="geometry" />
        </mxCell>
        <mxCell id="bunzH4c_ks8n5rz-YsQw-5" value="crm_prd_info" style="rounded=1;whiteSpace=wrap;html=1;fillColor=#f5f5f5;gradientColor=#b3b3b3;strokeColor=#666666;" vertex="1" parent="1">
          <mxGeometry x="1465" y="210" width="150" height="30" as="geometry" />
        </mxCell>
        <mxCell id="bunzH4c_ks8n5rz-YsQw-8" value="" style="rounded=1;whiteSpace=wrap;html=1;fillColor=none;gradientColor=#b3b3b3;strokeColor=#666666;strokeWidth=2;movable=1;resizable=1;rotatable=1;deletable=1;editable=1;locked=0;connectable=1;" vertex="1" parent="1">
          <mxGeometry x="1440" y="120" width="200" height="300" as="geometry" />
        </mxCell>
        <mxCell id="bunzH4c_ks8n5rz-YsQw-6" value="crm_cust_info" style="rounded=1;whiteSpace=wrap;html=1;fillColor=#f5f5f5;gradientColor=#b3b3b3;strokeColor=#666666;" vertex="1" parent="1">
          <mxGeometry x="1465" y="170" width="150" height="30" as="geometry" />
        </mxCell>
        <mxCell id="bunzH4c_ks8n5rz-YsQw-7" value="erp_px_cat_g1v2" style="rounded=1;whiteSpace=wrap;html=1;fillColor=#f5f5f5;gradientColor=#b3b3b3;strokeColor=#666666;" vertex="1" parent="1">
          <mxGeometry x="1465" y="360" width="150" height="30" as="geometry" />
        </mxCell>
        <mxCell id="bunzH4c_ks8n5rz-YsQw-9" style="edgeStyle=orthogonalEdgeStyle;rounded=0;orthogonalLoop=1;jettySize=auto;html=1;entryX=0;entryY=0.5;entryDx=0;entryDy=0;" edge="1" parent="1" source="qq0M3q49_DZtNdxDIvg4-10" target="bunzH4c_ks8n5rz-YsQw-2">
          <mxGeometry relative="1" as="geometry">
            <mxPoint x="1450" y="145" as="targetPoint" />
          </mxGeometry>
        </mxCell>
        <mxCell id="bIa1OYmXVrbRvZWFzYsL-1" value="&lt;b&gt;&lt;font style=&quot;font-size: 16px;&quot;&gt;Gold Layer&lt;/font&gt;&lt;/b&gt;" style="rounded=1;whiteSpace=wrap;html=1;fillColor=#fff2cc;gradientColor=#ffd966;strokeColor=#d6b656;gradientDirection=radial;" vertex="1" parent="1">
          <mxGeometry x="1730" y="50" width="200" height="40" as="geometry" />
        </mxCell>
        <mxCell id="bIa1OYmXVrbRvZWFzYsL-2" value="fact_sales" style="rounded=1;whiteSpace=wrap;html=1;fillColor=#fff2cc;gradientColor=#ffd966;strokeColor=#d6b656;" vertex="1" parent="1">
          <mxGeometry x="1755" y="170" width="150" height="30" as="geometry" />
        </mxCell>
        <mxCell id="bIa1OYmXVrbRvZWFzYsL-5" value="dim_products" style="rounded=1;whiteSpace=wrap;html=1;fillColor=#fff2cc;gradientColor=#ffd966;strokeColor=#d6b656;" vertex="1" parent="1">
          <mxGeometry x="1755" y="333.04" width="150" height="30" as="geometry" />
        </mxCell>
        <mxCell id="bIa1OYmXVrbRvZWFzYsL-6" value="" style="rounded=1;whiteSpace=wrap;html=1;fillColor=none;gradientColor=#ffd966;strokeColor=#d6b656;strokeWidth=2;movable=1;resizable=1;rotatable=1;deletable=1;editable=1;locked=0;connectable=1;" vertex="1" parent="1">
          <mxGeometry x="1720" y="120" width="200" height="300" as="geometry" />
        </mxCell>
        <mxCell id="bIa1OYmXVrbRvZWFzYsL-7" value="dim_customers" style="rounded=1;whiteSpace=wrap;html=1;fillColor=#fff2cc;gradientColor=#ffd966;strokeColor=#d6b656;" vertex="1" parent="1">
          <mxGeometry x="1755" y="250" width="150" height="30" as="geometry" />
        </mxCell>
        <mxCell id="bIa1OYmXVrbRvZWFzYsL-9" value="" style="endArrow=classic;html=1;rounded=0;entryX=0;entryY=0.5;entryDx=0;entryDy=0;" edge="1" parent="1" source="bunzH4c_ks8n5rz-YsQw-2" target="bIa1OYmXVrbRvZWFzYsL-2">
          <mxGeometry width="50" height="50" relative="1" as="geometry">
            <mxPoint x="1660" y="300" as="sourcePoint" />
            <mxPoint x="1710" y="250" as="targetPoint" />
          </mxGeometry>
        </mxCell>
        <mxCell id="bIa1OYmXVrbRvZWFzYsL-10" value="" style="endArrow=classic;html=1;rounded=0;entryX=0;entryY=0.25;entryDx=0;entryDy=0;exitX=1;exitY=0.25;exitDx=0;exitDy=0;" edge="1" parent="1" source="bunzH4c_ks8n5rz-YsQw-6" target="bIa1OYmXVrbRvZWFzYsL-7">
          <mxGeometry width="50" height="50" relative="1" as="geometry">
            <mxPoint x="1615" y="190" as="sourcePoint" />
            <mxPoint x="1762" y="233" as="targetPoint" />
          </mxGeometry>
        </mxCell>
        <mxCell id="bIa1OYmXVrbRvZWFzYsL-11" value="" style="endArrow=classic;html=1;rounded=0;entryX=0;entryY=0.25;entryDx=0;entryDy=0;exitX=1;exitY=0.5;exitDx=0;exitDy=0;" edge="1" parent="1" source="bunzH4c_ks8n5rz-YsQw-5" target="bIa1OYmXVrbRvZWFzYsL-5">
          <mxGeometry width="50" height="50" relative="1" as="geometry">
            <mxPoint x="1670" y="200" as="sourcePoint" />
            <mxPoint x="1810" y="280" as="targetPoint" />
          </mxGeometry>
        </mxCell>
        <mxCell id="bIa1OYmXVrbRvZWFzYsL-12" value="" style="endArrow=classic;html=1;rounded=0;entryX=0;entryY=0.5;entryDx=0;entryDy=0;exitX=1;exitY=0.25;exitDx=0;exitDy=0;" edge="1" parent="1" source="bunzH4c_ks8n5rz-YsQw-4" target="bIa1OYmXVrbRvZWFzYsL-7">
          <mxGeometry width="50" height="50" relative="1" as="geometry">
            <mxPoint x="1615" y="300" as="sourcePoint" />
            <mxPoint x="1755" y="416" as="targetPoint" />
          </mxGeometry>
        </mxCell>
        <mxCell id="bIa1OYmXVrbRvZWFzYsL-13" value="" style="endArrow=classic;html=1;rounded=0;entryX=0;entryY=1;entryDx=0;entryDy=0;exitX=1;exitY=0.5;exitDx=0;exitDy=0;" edge="1" parent="1" source="bunzH4c_ks8n5rz-YsQw-3" target="bIa1OYmXVrbRvZWFzYsL-7">
          <mxGeometry width="50" height="50" relative="1" as="geometry">
            <mxPoint x="1640" y="333" as="sourcePoint" />
            <mxPoint x="1780" y="310" as="targetPoint" />
          </mxGeometry>
        </mxCell>
        <mxCell id="bIa1OYmXVrbRvZWFzYsL-14" value="" style="endArrow=classic;html=1;rounded=0;entryX=0;entryY=0.75;entryDx=0;entryDy=0;exitX=1;exitY=0.5;exitDx=0;exitDy=0;" edge="1" parent="1" source="bunzH4c_ks8n5rz-YsQw-7" target="bIa1OYmXVrbRvZWFzYsL-5">
          <mxGeometry width="50" height="50" relative="1" as="geometry">
            <mxPoint x="1620" y="390" as="sourcePoint" />
            <mxPoint x="1760" y="335" as="targetPoint" />
          </mxGeometry>
        </mxCell>
      </root>
    </mxGraphModel>
  </diagram>
</mxfile>
